HIERARCHY
ROOT Joint1
{
	OFFSET 0.000000 0.000000 0.000000
	CHANNELS 6 Xposition Yposition Zposition Xrotation Yrotation Zrotation
	JOINT Joint2
	{
		OFFSET -0.000000 0.000000 1.456275
		CHANNELS 6 Xposition Yposition Zposition Xrotation Yrotation Zrotation
		JOINT Joint3
		{
			OFFSET -0.000000 0.000002 1.471446
			CHANNELS 6 Xposition Yposition Zposition Xrotation Yrotation Zrotation
			JOINT Joint4
			{
				OFFSET 0.625745 0.000000 0.917755
				CHANNELS 6 Xposition Yposition Zposition Xrotation Yrotation Zrotation
				JOINT Joint5
				{
					OFFSET -0.629534 0.000001 0.940221
					CHANNELS 6 Xposition Yposition Zposition Xrotation Yrotation Zrotation
					JOINT Joint6
					{
						OFFSET -0.000001 0.113772 1.960660
						CHANNELS 6 Xposition Yposition Zposition Xrotation Yrotation Zrotation
						JOINT Joint7
						{
							OFFSET -0.669733 -0.113771 0.388340
							CHANNELS 6 Xposition Yposition Zposition Xrotation Yrotation Zrotation
							End Site
							{
								OFFSET 0.005509 0.005509 0.438980
							}
						}
					}
				}
			}
		}
	}
}
MOTION
Frames: 27
Frame Time: 0.041667
0.000000 0.000000 0.000000 -0.000000 1.019410 47.912831 -0.000000 -0.000000 1.456275 -0.000007 -66.977088 -0.000005 -0.000000 0.000002 1.471446 -0.000000 -1.133464 -37.280791 0.625745 0.000001 0.917755 0.000028 92.133836 0.000043 -0.629534 0.000001 0.940221 -0.000003 1.709738 72.142951 -0.000001 0.113772 1.960660 -88.303875 124.786436 0.000007 -0.669733 -0.113771 0.388340 -0.498049 3.544808 123.220533 
0.000000 0.000000 0.000000 -0.000000 1.019410 46.729928 -0.000000 0.000000 1.456275 0.000005 -66.434108 -0.000001 -0.000000 0.000002 1.471446 -0.000001 -1.133463 -36.361195 0.625744 0.000001 0.917755 0.000049 93.192501 -0.000017 -0.629534 0.000001 0.940220 0.000000 1.709735 70.361679 -0.000001 0.113772 1.960660 -88.303875 123.927116 0.000008 -0.669733 -0.113771 0.388340 -0.503096 3.545844 123.510598 
0.000000 0.000000 0.000000 -0.000000 1.019410 45.069737 -0.000000 0.000000 1.456275 -0.000004 -65.672037 -0.000003 -0.000000 0.000002 1.471446 -0.000003 -1.133463 -35.070542 0.625745 0.000001 0.917755 0.000013 94.678334 0.000009 -0.629533 0.000001 0.940221 -0.000002 1.709734 67.861672 -0.000000 0.113772 1.960660 -88.303875 122.721014 0.000006 -0.669733 -0.113771 0.388340 -0.510188 3.547256 123.917691 
0.000000 0.000000 0.000000 -0.000000 1.019410 43.391618 -0.000000 0.000000 1.456275 -0.000001 -64.901728 0.000004 -0.000000 0.000002 1.471446 0.000002 -1.133463 -33.765945 0.625745 0.000001 0.917756 0.000026 96.180217 -0.000001 -0.629534 0.000001 0.940221 -0.000002 1.709737 65.334659 -0.000001 0.113772 1.960661 -88.303875 121.501921 0.000005 -0.669733 -0.113771 0.388341 -0.517365 3.548632 124.329168 
0.000000 0.000000 0.000000 -0.000000 1.019410 42.164882 -0.000000 -0.000000 1.456275 -0.000000 -64.338620 -0.000002 -0.000000 0.000002 1.471446 0.000002 -1.133461 -32.812270 0.625745 0.000001 0.917755 0.000005 97.278122 -0.000014 -0.629534 0.000001 0.940221 0.000001 1.709735 63.487373 -0.000001 0.113772 1.960660 -88.303875 120.610745 0.000004 -0.669733 -0.113771 0.388340 -0.522619 3.549608 124.629997 
0.000000 0.000000 0.000000 -0.000000 1.019410 41.178965 -0.000000 0.000000 1.456275 -0.000004 -63.886058 0.000005 -0.000000 0.000002 1.471446 0.000001 -1.133463 -32.045803 0.625745 0.000001 0.917755 -0.000002 98.160501 -0.000019 -0.629533 0.000001 0.940221 0.000003 1.709740 62.002716 -0.000001 0.113772 1.960661 -88.303875 119.894504 0.000004 -0.669733 -0.113771 0.388341 -0.526845 3.550369 124.871759 
0.000000 0.000000 0.000000 -0.000000 1.019410 40.053308 -0.000000 -0.000000 1.456275 -0.000004 -63.369348 0.000002 -0.000000 0.000002 1.471446 -0.000001 -1.133465 -31.170702 0.625745 0.000000 0.917755 0.000009 99.167933 -0.000001 -0.629534 0.000001 0.940221 -0.000001 1.709735 60.307633 -0.000001 0.113772 1.960661 -88.303875 119.076753 0.000003 -0.669733 -0.113771 0.388340 -0.531671 3.551220 125.147794 
0.000000 0.000000 0.000000 -0.000000 1.019410 38.514166 -0.000000 0.000000 1.456275 -0.000011 -62.662847 -0.000000 -0.000000 0.000002 1.471446 0.000001 -1.133462 -29.974155 0.625745 0.000000 0.917755 0.000012 100.545432 0.000002 -0.629534 0.000001 0.940221 0.000001 1.709737 57.989918 -0.000001 0.113772 1.960660 -88.303875 117.958624 0.000005 -0.669733 -0.113771 0.388340 -0.538280 3.552337 125.525203 
0.000000 0.000000 0.000000 -0.000000 1.019410 36.714992 -0.000000 0.000000 1.456275 -0.000008 -61.836967 -0.000004 -0.000000 0.000002 1.471446 -0.000003 -1.133463 -28.575456 0.625745 0.000000 0.917755 0.000001 102.155649 -0.000007 -0.629533 0.000001 0.940221 0.000000 1.709737 55.280611 -0.000001 0.113772 1.960661 -88.303875 116.651571 0.000005 -0.669734 -0.113771 0.388340 -0.546015 3.553598 125.966378 
0.000000 0.000000 0.000000 -0.000000 1.019410 34.915920 -0.000000 0.000000 1.456275 -0.000003 -61.011143 -0.000004 -0.000000 0.000002 1.471446 -0.000000 -1.133460 -27.176838 0.625745 0.000001 0.917755 0.000005 103.765777 -0.000011 -0.629534 0.000001 0.940220 0.000000 1.709735 52.571467 -0.000001 0.113773 1.960661 -88.303875 115.344601 0.000004 -0.669733 -0.113771 0.388339 -0.553760 3.554796 126.407540 
0.000000 0.000000 0.000000 -0.000000 1.019410 33.376679 -0.000000 0.000000 1.456275 -0.000002 -60.304587 0.000001 -0.000000 0.000002 1.471446 -0.000002 -1.133462 -25.980216 0.625745 0.000001 0.917755 0.000006 105.143365 -0.000000 -0.629534 0.000001 0.940221 -0.000000 1.709733 50.253588 -0.000001 0.113773 1.960661 -88.303875 114.226403 0.000003 -0.669733 -0.113771 0.388340 -0.560389 3.555776 126.784990 
0.000000 0.000000 0.000000 -0.000000 1.019410 32.250371 -0.000000 0.000000 1.456275 -0.000001 -59.787583 0.000004 -0.000000 0.000002 1.471446 -0.000002 -1.133459 -25.104611 0.625744 0.000001 0.917755 0.000003 106.151385 -0.000006 -0.629534 0.000001 0.940221 0.000002 1.709738 48.557522 -0.000000 0.113772 1.960661 -88.303868 113.408167 0.000005 -0.669734 -0.113771 0.388340 -0.565248 3.556464 127.061176 
0.000000 0.000000 0.000000 -0.000000 1.019410 31.264067 -0.000000 0.000000 1.456275 -0.000000 -59.334844 0.000002 -0.000000 0.000002 1.471446 0.000001 -1.133462 -24.337854 0.625745 0.000000 0.917755 0.000008 107.034098 -0.000003 -0.629534 0.000001 0.940221 0.000001 1.709735 47.072308 -0.000001 0.113773 1.960660 -88.303882 112.691653 0.000003 -0.669733 -0.113770 0.388340 -0.569504 3.557052 127.303019 
0.000000 0.000000 0.000000 -0.000000 1.019410 30.038363 -0.000000 -0.000000 1.456275 0.000000 -58.772207 0.000005 -0.000000 0.000002 1.471446 -0.000000 -1.133462 -23.384966 0.625745 0.000001 0.917755 0.000013 108.131081 0.000003 -0.629533 0.000001 0.940221 0.000000 1.709740 45.226562 -0.000001 0.113773 1.960661 -88.303868 111.801222 0.000007 -0.669734 -0.113771 0.388340 -0.574798 3.557747 127.603588 
0.000000 0.000000 0.000000 -0.000000 1.019410 28.362442 -0.000000 0.000000 1.456275 0.000001 -58.002916 -0.000001 -0.000000 0.000002 1.471446 -0.000000 -1.133463 -22.082085 0.625744 0.000001 0.917755 0.000008 109.630984 -0.000005 -0.629533 0.000001 0.940221 -0.000001 1.709734 42.702858 -0.000001 0.113772 1.960661 -88.303868 110.583713 0.000003 -0.669733 -0.113771 0.388340 -0.582040 3.558662 128.014547 
0.000000 0.000000 0.000000 -0.000000 1.019410 26.700048 -0.000000 0.000000 1.456275 0.000002 -57.239830 0.000001 -0.000000 0.000002 1.471446 -0.000002 -1.133463 -20.789726 0.625745 0.000001 0.917755 0.000003 111.118797 -0.000007 -0.629533 0.000001 0.940221 -0.000001 1.709738 40.199539 -0.000000 0.113772 1.960660 -88.303862 109.376047 -0.000001 -0.669734 -0.113771 0.388340 -0.589231 3.559513 128.422200 
0.000000 0.000000 0.000000 -0.000000 1.019410 25.507415 -0.000000 0.000000 1.456275 0.000001 -56.692384 -0.000001 -0.000000 0.000002 1.471446 -0.000002 -1.133461 -19.862562 0.625745 0.000000 0.917755 0.000007 112.186164 -0.000007 -0.629534 0.000001 0.940221 0.000000 1.709738 38.403613 -0.000001 0.113772 1.960660 -88.303875 108.509638 0.000003 -0.669733 -0.113771 0.388340 -0.594388 3.560098 128.714669 
0.000000 0.000000 0.000000 -0.000000 1.019410 24.536162 -0.000000 0.000000 1.456275 0.000004 -56.246540 0.000004 -0.000000 0.000002 1.471446 -0.000002 -1.133461 -19.107493 0.625745 0.000001 0.917755 0.000004 113.055422 -0.000000 -0.629534 0.000001 0.940221 -0.000002 1.709736 36.941027 -0.000001 0.113772 1.960661 -88.303875 107.804059 0.000005 -0.669733 -0.113771 0.388340 -0.598596 3.560544 128.952810 
0.000000 0.000000 0.000000 -0.000000 1.019410 23.361735 -0.000000 -0.000000 1.456275 -0.000001 -55.707457 0.000001 -0.000000 0.000002 1.471446 -0.000001 -1.133464 -18.194480 0.625745 0.000000 0.917755 0.000007 114.106506 0.000001 -0.629533 0.000001 0.940221 -0.000001 1.709740 35.172510 -0.000001 0.113772 1.960660 -88.303862 106.950879 0.000009 -0.669734 -0.113771 0.388339 -0.603683 3.561075 129.240798 
0.000000 0.000000 0.000000 -0.000000 1.019410 21.724380 -0.000000 -0.000000 1.456275 -0.000000 -54.955863 -0.000000 -0.000000 0.000002 1.471446 -0.000001 -1.133459 -16.921582 0.625745 0.000000 0.917755 0.000004 115.571910 -0.000005 -0.629534 0.000001 0.940221 0.000000 1.709736 32.706887 -0.000001 0.113772 1.960660 -88.303868 105.761395 0.000011 -0.669733 -0.113771 0.388339 -0.610779 3.561760 129.642304 
0.000000 0.000000 0.000000 -0.000000 1.019410 20.023424 -0.000000 0.000000 1.456275 -0.000000 -54.175073 -0.000001 -0.000000 0.000002 1.471446 -0.000002 -1.133465 -15.599233 0.625745 0.000000 0.917755 0.000001 117.094222 -0.000004 -0.629533 0.000001 0.940221 0.000000 1.709738 30.145491 -0.000001 0.113772 1.960660 -88.303862 104.525704 0.000014 -0.669733 -0.113771 0.388339 -0.618160 3.562425 130.059410 
0.000000 0.000000 0.000000 -0.000000 1.019410 18.693528 -0.000000 -0.000000 1.456275 0.000001 -53.564618 0.000001 -0.000000 0.000002 1.471446 -0.000003 -1.133465 -14.565358 0.625744 0.000000 0.917755 0.000002 118.284451 -0.000002 -0.629534 0.000001 0.940221 0.000001 1.709735 28.142859 -0.000001 0.113772 1.960661 -88.303868 103.559574 0.000006 -0.669733 -0.113771 0.388340 -0.623936 3.562908 130.385511 
0.000000 0.000000 0.000000 -0.000000 1.019410 17.651598 -0.000000 -0.000000 1.456275 -0.000002 -53.086344 -0.000000 -0.000000 0.000002 1.471446 0.000000 -1.133457 -13.755351 0.625744 0.000001 0.917755 0.000002 119.216949 -0.000001 -0.629534 0.000001 0.940221 0.000001 1.709737 26.573867 -0.000001 0.113772 1.960661 -88.303868 102.802646 0.000018 -0.669733 -0.113771 0.388340 -0.628461 3.563261 130.641015 
0.000000 0.000000 0.000000 -0.000000 1.019410 16.685111 -0.000000 0.000000 1.456275 0.000002 -52.642693 -0.000000 -0.000000 0.000002 1.471446 -0.000000 -1.133460 -13.003993 0.625744 0.000000 0.917755 0.000003 120.081938 -0.000000 -0.629534 0.000001 0.940221 0.000001 1.709738 25.118466 -0.000001 0.113771 1.960661 -88.303882 102.100530 0.000008 -0.669733 -0.113771 0.388339 -0.632656 3.563574 130.878036 
0.000000 0.000000 0.000000 -0.000000 1.019410 15.627224 -0.000000 -0.000000 1.456275 -0.000001 -52.157097 -0.000002 -0.000000 0.000002 1.471446 0.000001 -1.133457 -12.181575 0.625745 0.000000 0.917754 0.000003 121.028725 -0.000001 -0.629534 0.000001 0.940221 -0.000001 1.709738 23.525434 -0.000001 0.113772 1.960661 -88.303868 101.332010 0.000009 -0.669733 -0.113771 0.388340 -0.637254 3.563889 131.137433 
0.000000 0.000000 0.000000 -0.000000 1.019410 14.493899 -0.000000 -0.000000 1.456275 -0.000001 -51.636865 0.000000 -0.000000 0.000002 1.471446 0.000000 -1.133458 -11.300518 0.625745 0.000000 0.917755 0.000002 122.043022 -0.000002 -0.629534 0.000001 0.940221 0.000000 1.709737 21.818817 -0.000001 0.113772 1.960661 -88.303862 100.508686 0.000008 -0.669733 -0.113771 0.388340 -0.642181 3.564210 131.415353 
0.000000 0.000000 0.000000 -0.000000 1.019410 13.346798 -0.000000 0.000000 1.456275 0.000001 -51.110312 0.000000 -0.000000 0.000002 1.471446 0.000000 -1.133463 -10.408746 0.625745 0.000000 0.917755 0.000003 123.069654 -0.000002 -0.629534 0.000001 0.940221 -0.000001 1.709734 20.091444 -0.000000 0.113772 1.960661 -88.303862 99.675355 0.000020 -0.669733 -0.113771 0.388340 -0.647167 3.564515 131.696634 
